#!OML:ASF F:\VICON\USERDATA\INSTALL\rory3\rory3.ASF
:FULLY-SPECIFIED
:DEGREES
1437
root -5.50838 17.8647 -1.01456 -535.75 59.2421 187.321
lowerback 11.5002 2.8257 3.01776
upperback 1.23898 4.27735 1.08451
thorax -5.00437 2.09316 -1.22662
lowerneck -16.6746 -7.18804 -10.7434
upperneck 29.6687 -8.99775 8.73297
head 13.7898 -3.66584 3.85442
rclavicle -8.19863e-014 -4.82053e-015
rhumerus -28.7931 -3.94403 -84.2418
rradius 33.5744
rwrist 1.8188
rhand -17.5427 8.62292
rfingers 7.12502
rthumb 8.71169 -21.1773
lclavicle -8.19863e-014 -4.82053e-015
lhumerus -38.6355 -0.888364 86.2099
lradius 29.9403
lwrist -10.0533
lhand -15.9624 24.7264
lfingers 7.12502
lthumb 10.2364 54.4574
rfemur 5.19384 1.62265 28.1894
rtibia 17.5796
rfoot -14.0364 -4.4244
rtoes 2.1158
lfemur -22.6725 -6.37435 -12.8425
ltibia 25.8925
lfoot -4.92574 4.25303
ltoes -6.75735
1438
root -5.41716 17.8593 -1.09271 -535.657 59.4174 187.326
lowerback 11.3792 2.88114 3.09601
upperback 1.25011 4.35102 1.02586
thorax -4.91206 2.12901 -1.33419
lowerneck -16.5965 -7.1281 -10.7329
upperneck 29.5228 -8.91218 8.71208
head 13.6967 -3.63664 3.85556
rclavicle 3.42453e-014 5.29264e-015
rhumerus -28.513 -3.6167 -84.3645
rradius 33.7534
rwrist 2.06856
rhand -17.2482 8.54833
rfingers 7.12502
rthumb 8.9958 -21.2399
lclavicle 3.42453e-014 5.29264e-015
lhumerus -38.8743 -0.315374 85.9804
lradius 29.9365
lwrist -10.1196
lhand -16.1985 24.6983
lfingers 7.12502
lthumb 10.0087 54.4403
rfemur 5.72499 1.81457 28.1158
rtibia 17.2368
rfoot -14.1373 -4.49219
rtoes 3.05716
lfemur -22.6016 -7.05659 -12.4927
ltibia 23.7473
lfoot -4.86656 4.06572
ltoes -6.18128
1439
root -5.32166 17.8465 -1.16074 -535.28 59.9558 187.618
lowerback 11.3323 3.09011 3.02714
upperback 1.19538 4.61947 1.06882
thorax -4.94147 2.26096 -1.28967
lowerneck -16.5411 -7.08177 -10.6621
upperneck 29.4606 -8.82018 8.55555
head 13.6327 -3.61266 3.79491
rclavicle 4.38211e-014 5.72748e-015
rhumerus -28.3321 -3.29712 -84.473
rradius 33.8726
rwrist 2.07736
rhand -17.2449 8.88144
rfingers 7.12502
rthumb 8.99899 -20.9066
lclavicle 4.38211e-014 5.72748e-015
lhumerus -39.0894 0.102545 85.8493
lradius 29.804
lwrist -10.0708
lhand -16.0846 24.6541
lfingers 7.12502
lthumb 10.1185 54.3908
rfemur 6.17069 2.29799 28.2181
rtibia 16.9519
rfoot -14.0874 -4.64046
rtoes 3.28425
lfemur -22.4796 -7.06466 -12.0674
ltibia 21.791
lfoot -4.77403 3.80227
ltoes -6.61299
1440
root -5.22491 17.8321 -1.23095 -535.264 60.3361 187.55
lowerback 11.2882 3.26399 2.89015
upperback 1.19034 4.82563 0.999923
thorax -4.91912 2.36423 -1.31252
lowerneck -16.7267 -7.0828 -10.4479
upperneck 29.5884 -8.8219 8.38497
head 13.7048 -3.60494 3.6894
rclavicle 1.30721e-013 -2.71465e-014
rhumerus -28.1098 -3.00392 -84.65
rradius 33.9639
rwrist 2.04646
rhand -17.2964 9.01972
rfingers 7.12502
rthumb 8.94937 -20.7705
lclavicle 1.30721e-013 -2.71465e-014
lhumerus -39.2331 0.435056 85.6129
lradius 29.6827
lwrist -10.1994
lhand -16.0177 24.5797
lfingers 7.12502
lthumb 10.1831 54.3133
rfemur 6.68989 2.51421 28.1316
rtibia 16.7001
rfoot -14.1632 -4.70346
rtoes 2.49188
lfemur -22.3472 -6.96843 -11.9284
ltibia 20.0489
lfoot -4.60769 3.37782
ltoes -7.45813
1441
root -5.13033 17.8204 -1.31118 -535.471 60.4242 187.253
lowerback 11.185 3.30456 2.78378
upperback 1.21021 4.85554 0.910393
thorax -4.84048 2.38156 -1.34281
lowerneck -16.8582 -7.11418 -10.5043
upperneck 29.7235 -8.86973 8.4738
head 13.8065 -3.6139 3.72898
rclavicle -4.62174e-015 -2.13942e-014
rhumerus -27.8568 -2.69632 -84.7679
rradius 34.0345
rwrist 2.22296
rhand -17.3681 8.91254
rfingers 7.12502
rthumb 8.88013 -20.8806
lclavicle -4.62174e-015 -2.13942e-014
lhumerus -39.4824 0.736535 85.4675
lradius 29.7952
lwrist -10.092
lhand -15.9271 25.0011
lfingers 7.12502
lthumb 10.2705 54.7303
rfemur 7.21134 2.45364 27.9126
rtibia 16.4957
rfoot -14.4165 -4.69574
rtoes 1.16373
lfemur -22.2864 -7.02569 -11.9885
ltibia 18.5526
lfoot -4.57351 2.92056
ltoes -8.09474
1442
root -5.03644 17.8101 -1.39264 -535.518 60.4893 187.139
lowerback 11.0924 3.32261 2.72025
upperback 1.21233 4.86643 0.892889
thorax -4.79005 2.38875 -1.3208
lowerneck -16.8893 -7.12435 -10.6276
upperneck 29.8105 -8.85826 8.52133
head 13.8602 -3.6138 3.77432
rclavicle 5.17787e-014 7.3923e-015
rhumerus -27.504 -2.40079 -84.8301
rradius 33.9477
rwrist 2.26609
rhand -17.4242 8.70272
rfingers 7.12502
rthumb 8.82597 -21.0927
lclavicle 5.17787e-014 7.3923e-015
lhumerus -39.7672 0.721894 85.5765
lradius 29.8866
lwrist -9.44163
lhand -16.2679 25.0689
lfingers 7.12502
lthumb 9.94166 54.8142
rfemur 7.65867 2.29394 27.7549
rtibia 16.3393
rfoot -14.6217 -4.63303
rtoes 0.280933
lfemur -22.235 -6.82499 -12.0405
ltibia 17.2695
lfoot -4.67259 2.46023
ltoes -7.03419
